<svg class="main-svg" xmlns="http://www.w3.org/2000/svg" xmlns:xlink="http://www.w3.org/1999/xlink" width="2200" height="1000" style="" viewBox="0 0 1100 500"><rect x="0" y="0" width="1100" height="500" style="fill: rgb(255, 255, 255); fill-opacity: 1;"/><defs id="defs-590706"><g class="clips"><clipPath id="clip590706xyplot" class="plotclip"><rect width="1014" height="385"/></clipPath><clipPath class="axesclip" id="clip590706x"><rect x="60" y="0" width="1014" height="500"/></clipPath><clipPath class="axesclip" id="clip590706y"><rect x="0" y="50" width="1100" height="385"/></clipPath><clipPath class="axesclip" id="clip590706xy"><rect x="60" y="50" width="1014" height="385"/></clipPath></g><g class="gradients"/><g class="patterns"/></defs><g class="bglayer"/><g class="layer-below"><g class="imagelayer"/><g class="shapelayer"/></g><g class="cartesianlayer"><g class="subplot xy"><g class="layer-subplot"><g class="shapelayer"/><g class="imagelayer"/></g><g class="minor-gridlayer"><g class="x"/><g class="y"/></g><g class="gridlayer"><g class="x"><path class="xgrid crisp" transform="translate(262.8,0)" d="M0,50v385" style="stroke: rgb(128, 128, 128); stroke-opacity: 0.15; stroke-width: 1px;"/><path class="xgrid crisp" transform="translate(465.6,0)" d="M0,50v385" style="stroke: rgb(128, 128, 128); stroke-opacity: 0.15; stroke-width: 1px;"/><path class="xgrid crisp" transform="translate(668.4,0)" d="M0,50v385" style="stroke: rgb(128, 128, 128); stroke-opacity: 0.15; stroke-width: 1px;"/><path class="xgrid crisp" transform="translate(871.2,0)" d="M0,50v385" style="stroke: rgb(128, 128, 128); stroke-opacity: 0.15; stroke-width: 1px;"/></g><g class="y"><path class="ygrid crisp" transform="translate(0,376.48)" d="M60,0h1014" style="stroke: rgb(128, 128, 128); stroke-opacity: 0.15; stroke-width: 1px;"/><path class="ygrid crisp" transform="translate(0,317.96)" d="M60,0h1014" style="stroke: rgb(128, 128, 128); stroke-opacity: 0.15; stroke-width: 1px;"/><path class="ygrid crisp" transform="translate(0,259.44)" d="M60,0h1014" style="stroke: rgb(128, 128, 128); stroke-opacity: 0.15; stroke-width: 1px;"/><path class="ygrid crisp" transform="translate(0,200.92)" d="M60,0h1014" style="stroke: rgb(128, 128, 128); stroke-opacity: 0.15; stroke-width: 1px;"/><path class="ygrid crisp" transform="translate(0,142.4)" d="M60,0h1014" style="stroke: rgb(128, 128, 128); stroke-opacity: 0.15; stroke-width: 1px;"/><path class="ygrid crisp" transform="translate(0,83.88)" d="M60,0h1014" style="stroke: rgb(128, 128, 128); stroke-opacity: 0.15; stroke-width: 1px;"/></g></g><g class="zerolinelayer"><path class="xzl zl crisp" transform="translate(60,0)" d="M0,50v385" style="stroke: rgb(128, 128, 128); stroke-opacity: 0.2; stroke-width: 1px;"/><path class="yzl zl crisp" transform="translate(0,435)" d="M60,0h1014" style="stroke: rgb(128, 128, 128); stroke-opacity: 0.2; stroke-width: 1px;"/></g><g class="layer-between"><g class="shapelayer"/><g class="imagelayer"/></g><path class="xlines-below"/><path class="ylines-below"/><g class="overlines-below"/><g class="xaxislayer-below"/><g class="yaxislayer-below"/><g class="overaxes-below"/><g class="overplot"><g class="xy" transform="translate(60,50)" clip-path="url(#clip590706xyplot)"><g class="scatterlayer mlayer"><g class="trace scatter tracee518ef" style="stroke-miterlimit: 2; opacity: 1;"><g class="fills"/><g class="errorbars"/><g class="lines"><path class="js-line" d="M0,385L365.04,385L375.18,348.43L385.32,311.85L395.46,348.43L405.6,385L415.74,275.27L425.88,165.55L436.02,165.55L446.16,165.55L456.3,275.27L466.44,385L476.58,311.85L507,92.4L517.14,202.13L527.28,311.85L537.42,311.85L547.56,311.85L557.7,238.7L567.84,165.55L577.98,275.27L588.12,385L598.26,311.85L608.4,238.7L618.54,311.85L628.68,385L638.82,385L1014,385" style="vector-effect: none; fill: none; stroke: rgb(217, 83, 79); stroke-opacity: 1; stroke-width: 2px; opacity: 1;"/></g><g class="points"/><g class="text"/></g><g class="trace scatter trace38c583" style="stroke-miterlimit: 2; opacity: 1;"><g class="fills"/><g class="errorbars"/><g class="lines"><path class="js-line" d="M0,385L344.76,385L354.9,348.43L365.04,311.85L375.18,311.85L385.32,311.85L395.46,348.43L405.6,385L415.74,348.43L425.88,311.85L436.02,238.7L446.16,165.55L456.3,238.7L466.44,311.85L476.58,348.43L486.72,385L496.86,275.27L507,165.55L517.14,165.55L527.28,165.55L537.42,202.13L547.56,238.7L557.7,311.85L567.84,385L577.98,311.85L588.12,238.7L598.26,311.85L608.4,385L618.54,311.85L628.68,238.7L638.82,311.85L648.96,385L659.1,348.43L669.24,311.85L679.38,348.43L689.52,385L699.66,385L1014,385" style="vector-effect: none; fill: none; stroke: rgb(217, 83, 79); stroke-opacity: 1; stroke-width: 2px; opacity: 1;"/></g><g class="points"/><g class="text"/></g><g class="trace scatter trace0b4901" style="stroke-miterlimit: 2; opacity: 1;"><g class="fills"/><g class="errorbars"/><g class="lines"><path class="js-line" d="M0,385L405.6,385L415.74,311.85L425.88,238.7L436.02,238.7L446.16,238.7L456.3,202.13L486.72,92.4L496.86,238.7L507,385L517.14,238.7L527.28,92.4L537.42,165.55L547.56,238.7L557.7,275.27L588.12,385L598.26,385L608.4,385L618.54,348.43L628.68,311.85L638.82,311.85L648.96,311.85L659.1,348.43L669.24,385L679.38,385L1014,385" style="vector-effect: none; fill: none; stroke: rgb(217, 83, 79); stroke-opacity: 1; stroke-width: 2px; opacity: 1;"/></g><g class="points"/><g class="text"/></g><g class="trace scatter trace8532a0" style="stroke-miterlimit: 2; opacity: 1;"><g class="fills"/><g class="errorbars"/><g class="lines"><path class="js-line" d="M0,385L324.48,385L334.62,348.43L344.76,311.85L354.9,311.85L385.32,311.85L395.46,348.43L405.6,385L415.74,348.43L486.72,92.4L496.86,165.55L507,238.7L517.14,202.13L527.28,165.55L537.42,238.7L547.56,311.85L557.7,311.85L567.84,311.85L577.98,348.43L588.12,385L598.26,385L1014,385" style="vector-effect: none; fill: none; stroke: rgb(217, 83, 79); stroke-opacity: 1; stroke-width: 2px; opacity: 1;"/></g><g class="points"/><g class="text"/></g><g class="trace scatter traceba88e3" style="stroke-miterlimit: 2; opacity: 1;"><g class="fills"/><g class="errorbars"/><g class="lines"><path class="js-line" d="M0,385L283.92,385L294.06,348.43L304.2,311.85L314.34,348.43L324.48,385L334.62,385L365.04,385L375.18,348.43L385.32,311.85L395.46,348.43L405.6,385L415.74,311.85L425.88,238.7L436.02,238.7L486.72,238.7L496.86,275.27L527.28,385L537.42,202.13L547.56,19.25L557.7,165.55L567.84,311.85L577.98,275.27L588.12,238.7L598.26,275.27L628.68,385L638.82,385L1014,385" style="vector-effect: none; fill: none; stroke: rgb(217, 83, 79); stroke-opacity: 1; stroke-width: 2px; opacity: 1;"/></g><g class="points"/><g class="text"/></g><g class="trace scatter trace020fd6" style="stroke-miterlimit: 2; opacity: 1;"><g class="fills"/><g class="errorbars"/><g class="lines"><path class="js-line" d="M0,385L425.88,385L436.02,275.27L446.16,165.55L456.3,128.98L466.44,92.4L476.58,128.98L507,238.7L517.14,238.7L567.84,238.7L577.98,311.85L588.12,385L598.26,311.85L608.4,238.7L618.54,311.85L628.68,385L638.82,385L1014,385" style="vector-effect: none; fill: none; stroke: rgb(217, 83, 79); stroke-opacity: 1; stroke-width: 2px; opacity: 1;"/></g><g class="points"/><g class="text"/></g><g class="trace scatter trace251884" style="stroke-miterlimit: 2; opacity: 1;"><g class="fills"/><g class="errorbars"/><g class="lines"><path class="js-line" d="M0,385L324.48,385L334.62,348.43L344.76,311.85L354.9,348.43L365.04,385L375.18,385L385.32,385L395.46,348.43L446.16,165.55L456.3,238.7L466.44,311.85L476.58,311.85L486.72,311.85L496.86,275.27L507,238.7L517.14,238.7L527.28,238.7L537.42,275.27L547.56,311.85L557.7,238.7L567.84,165.55L577.98,202.13L628.68,385L638.82,385L1014,385" style="vector-effect: none; fill: none; stroke: rgb(217, 83, 79); stroke-opacity: 1; stroke-width: 2px; opacity: 1;"/></g><g class="points"/><g class="text"/></g><g class="trace scatter trace6a8e93" style="stroke-miterlimit: 2; opacity: 1;"><g class="fills"/><g class="errorbars"/><g class="lines"><path class="js-line" d="M0,385L405.6,385L415.74,311.85L425.88,238.7L436.02,311.85L446.16,385L456.3,385L466.44,385L476.58,275.27L486.72,165.55L496.86,165.55L507,165.55L517.14,128.98L527.28,92.4L537.42,202.13L547.56,311.85L557.7,311.85L588.12,311.85L598.26,275.27L608.4,238.7L618.54,275.27L628.68,311.85L638.82,275.27L648.96,238.7L659.1,311.85L669.24,385L679.38,385L1014,385" style="vector-effect: none; fill: none; stroke: rgb(217, 83, 79); stroke-opacity: 1; stroke-width: 2px; opacity: 1;"/></g><g class="points"/><g class="text"/></g><g class="trace scatter trace0231d7" style="stroke-miterlimit: 2; opacity: 1;"><g class="fills"/><g class="errorbars"/><g class="lines"><path class="js-line" d="M0,385L365.04,385L375.18,311.85L385.32,238.7L395.46,311.85L405.6,385L415.74,348.43L425.88,311.85L436.02,311.85L446.16,311.85L456.3,202.13L466.44,92.4L476.58,92.4L486.72,92.4L496.86,165.55L507,238.7L517.14,275.27L527.28,311.85L537.42,311.85L567.84,311.85L577.98,348.43L588.12,385L598.26,311.85L608.4,238.7L618.54,311.85L628.68,385L638.82,385L669.24,385L679.38,348.43L689.52,311.85L699.66,348.43L709.8,385L719.94,385L1014,385" style="vector-effect: none; fill: none; stroke: rgb(217, 83, 79); stroke-opacity: 1; stroke-width: 2px; opacity: 1;"/></g><g class="points"/><g class="text"/></g><g class="trace scatter trace842ead" style="stroke-miterlimit: 2; opacity: 1;"><g class="fills"/><g class="errorbars"/><g class="lines"><path class="js-line" d="M0,385L365.04,385L375.18,348.43L385.32,311.85L395.46,311.85L425.88,311.85L436.02,275.27L446.16,238.7L456.3,311.85L466.44,385L476.58,311.85L486.72,238.7L496.86,238.7L507,238.7L517.14,275.27L527.28,311.85L537.42,202.13L547.56,92.4L557.7,202.13L567.84,311.85L577.98,238.7L588.12,165.55L598.26,238.7L608.4,311.85L618.54,348.43L628.68,385L638.82,385L648.96,385L659.1,348.43L669.24,311.85L679.38,348.43L689.52,385L699.66,385L1014,385" style="vector-effect: none; fill: none; stroke: rgb(217, 83, 79); stroke-opacity: 1; stroke-width: 2px; opacity: 1;"/></g><g class="points"/><g class="text"/></g><g class="trace scatter trace869996" style="stroke-miterlimit: 2; opacity: 1;"><g class="fills"/><g class="errorbars"/><g class="lines"><path class="js-line" d="M0,385L425.88,385L436.02,238.7L446.16,92.4L456.3,202.13L466.44,311.85L476.58,311.85L486.72,311.85L496.86,238.7L507,165.55L517.14,128.98L527.28,92.4L537.42,165.55L567.84,385L577.98,348.43L588.12,311.85L598.26,348.43L608.4,385L618.54,311.85L628.68,238.7L638.82,275.27L648.96,311.85L659.1,311.85L669.24,311.85L679.38,348.43L689.52,385L699.66,385L1014,385" style="vector-effect: none; fill: none; stroke: rgb(217, 83, 79); stroke-opacity: 1; stroke-width: 2px; opacity: 1;"/></g><g class="points"/><g class="text"/></g><g class="trace scatter trace778195" style="stroke-miterlimit: 2; opacity: 1;"><g class="fills"/><g class="errorbars"/><g class="lines"><path class="js-line" d="M0,385L324.48,385L334.62,348.43L344.76,311.85L354.9,348.43L365.04,385L375.18,385L446.16,385L456.3,238.7L466.44,92.4L476.58,165.55L486.72,238.7L496.86,238.7L547.56,238.7L557.7,165.55L567.84,92.4L577.98,202.13L588.12,311.85L598.26,348.43L608.4,385L618.54,311.85L628.68,238.7L638.82,311.85L648.96,385L659.1,385L1014,385" style="vector-effect: none; fill: none; stroke: rgb(217, 83, 79); stroke-opacity: 1; stroke-width: 2px; opacity: 1;"/></g><g class="points"/><g class="text"/></g><g class="trace scatter tracebf73c3" style="stroke-miterlimit: 2; opacity: 1;"><g class="fills"/><g class="errorbars"/><g class="lines"><path class="js-line" d="M0,385L324.48,385L334.62,311.85L344.76,238.7L354.9,311.85L365.04,385L375.18,275.27L385.32,165.55L395.46,238.7L405.6,311.85L415.74,311.85L446.16,311.85L456.3,275.27L466.44,238.7L476.58,275.27L486.72,311.85L496.86,202.13L507,92.4L517.14,128.98L527.28,165.55L537.42,275.27L547.56,385L557.7,348.43L567.84,311.85L577.98,348.43L588.12,385L598.26,348.43L608.4,311.85L618.54,348.43L628.68,385L638.82,385L1014,385" style="vector-effect: none; fill: none; stroke: rgb(217, 83, 79); stroke-opacity: 1; stroke-width: 2px; opacity: 1;"/></g><g class="points"/><g class="text"/></g><g class="trace scatter tracea37034" style="stroke-miterlimit: 2; opacity: 1;"><g class="fills"/><g class="errorbars"/><g class="lines"><path class="js-line" d="M0,385L365.04,385L375.18,348.43L385.32,311.85L395.46,348.43L405.6,385L415.74,348.43L425.88,311.85L436.02,238.7L446.16,165.55L456.3,275.27L466.44,385L476.58,275.27L486.72,165.55L496.86,165.55L527.28,165.55L537.42,202.13L547.56,238.7L557.7,238.7L567.84,238.7L577.98,311.85L588.12,385L598.26,311.85L608.4,238.7L618.54,311.85L628.68,385L638.82,385L1014,385" style="vector-effect: none; fill: none; stroke: rgb(217, 83, 79); stroke-opacity: 1; stroke-width: 2px; opacity: 1;"/></g><g class="points"/><g class="text"/></g><g class="trace scatter trace8db4ae" style="stroke-miterlimit: 2; opacity: 1;"><g class="fills"/><g class="errorbars"/><g class="lines"><path class="js-line" d="M0,385L304.2,385L314.34,348.43L324.48,311.85L334.62,348.43L344.76,385L354.9,275.27L365.04,165.55L375.18,275.27L385.32,385L395.46,311.85L405.6,238.7L415.74,238.7L425.88,238.7L436.02,275.27L446.16,311.85L456.3,238.7L466.44,165.55L476.58,275.27L486.72,385L496.86,385L507,385L517.14,275.27L527.28,165.55L537.42,275.27L547.56,385L557.7,385L567.84,385L577.98,238.7L588.12,92.4L598.26,238.7L608.4,385L618.54,348.43L628.68,311.85L638.82,348.43L648.96,385L659.1,385L1014,385" style="vector-effect: none; fill: none; stroke: rgb(217, 83, 79); stroke-opacity: 1; stroke-width: 2px; opacity: 1;"/></g><g class="points"/><g class="text"/></g><g class="trace scatter tracef3513f" style="stroke-miterlimit: 2; opacity: 1;"><g class="fills"/><g class="errorbars"/><g class="lines"><path class="js-line" d="M0,385L385.32,385L395.46,348.43L425.88,238.7L436.02,311.85L446.16,385L456.3,348.43L466.44,311.85L476.58,311.85L486.72,311.85L496.86,238.7L507,165.55L517.14,202.13L527.28,238.7L537.42,202.13L547.56,165.55L557.7,165.55L567.84,165.55L577.98,275.27L588.12,385L598.26,311.85L608.4,238.7L618.54,311.85L628.68,385L638.82,348.43L648.96,311.85L659.1,311.85L669.24,311.85L679.38,348.43L689.52,385L699.66,385L1014,385" style="vector-effect: none; fill: none; stroke: rgb(217, 83, 79); stroke-opacity: 1; stroke-width: 2px; opacity: 1;"/></g><g class="points"/><g class="text"/></g><g class="trace scatter trace8b39ca" style="stroke-miterlimit: 2; opacity: 1;"><g class="fills"/><g class="errorbars"/><g class="lines"><path class="js-line" d="M0,385L365.04,385L375.18,348.43L385.32,311.85L395.46,348.43L405.6,385L415.74,385L425.88,385L436.02,311.85L446.16,238.7L456.3,275.27L466.44,311.85L476.58,275.27L507,165.55L517.14,165.55L527.28,165.55L537.42,275.27L547.56,385L557.7,311.85L567.84,238.7L577.98,238.7L588.12,238.7L598.26,275.27L608.4,311.85L618.54,275.27L628.68,238.7L638.82,275.27L669.24,385L679.38,385L1014,385" style="vector-effect: none; fill: none; stroke: rgb(217, 83, 79); stroke-opacity: 1; stroke-width: 2px; opacity: 1;"/></g><g class="points"/><g class="text"/></g><g class="trace scatter trace763e3c" style="stroke-miterlimit: 2; opacity: 1;"><g class="fills"/><g class="errorbars"/><g class="lines"><path class="js-line" d="M0,385L385.32,385L395.46,311.85L405.6,238.7L415.74,275.27L425.88,311.85L436.02,275.27L446.16,238.7L456.3,311.85L466.44,385L476.58,238.7L486.72,92.4L496.86,202.13L507,311.85L517.14,238.7L527.28,165.55L537.42,165.55L547.56,165.55L557.7,238.7L567.84,311.85L577.98,348.43L588.12,385L598.26,385L608.4,385L618.54,348.43L648.96,238.7L659.1,311.85L669.24,385L679.38,385L1014,385" style="vector-effect: none; fill: none; stroke: rgb(217, 83, 79); stroke-opacity: 1; stroke-width: 2px; opacity: 1;"/></g><g class="points"/><g class="text"/></g><g class="trace scatter trace53d047" style="stroke-miterlimit: 2; opacity: 1;"><g class="fills"/><g class="errorbars"/><g class="lines"><path class="js-line" d="M0,385L365.04,385L375.18,348.43L385.32,311.85L395.46,311.85L446.16,311.85L456.3,275.27L466.44,238.7L476.58,128.98L486.72,19.25L496.86,92.4L527.28,311.85L537.42,348.43L547.56,385L557.7,238.7L567.84,92.4L577.98,238.7L588.12,385L598.26,385L628.68,385L638.82,348.43L648.96,311.85L659.1,348.43L669.24,385L679.38,385L1014,385" style="vector-effect: none; fill: none; stroke: rgb(217, 83, 79); stroke-opacity: 1; stroke-width: 2px; opacity: 1;"/></g><g class="points"/><g class="text"/></g><g class="trace scatter trace96ae1c" style="stroke-miterlimit: 2; opacity: 1;"><g class="fills"/><g class="errorbars"/><g class="lines"><path class="js-line" d="M0,385L365.04,385L375.18,348.43L385.32,311.85L395.46,348.43L405.6,385L415.74,348.43L446.16,238.7L456.3,238.7L466.44,238.7L476.58,202.13L486.72,165.55L496.86,165.55L507,165.55L517.14,238.7L527.28,311.85L537.42,311.85L608.4,311.85L618.54,275.27L628.68,238.7L638.82,311.85L648.96,385L659.1,348.43L669.24,311.85L679.38,348.43L689.52,385L699.66,385L1014,385" style="vector-effect: none; fill: none; stroke: rgb(217, 83, 79); stroke-opacity: 1; stroke-width: 2px; opacity: 1;"/></g><g class="points"/><g class="text"/></g></g></g></g><g class="zerolinelayer-above"/><path class="xlines-above crisp" d="M0,0" style="fill: none;"/><path class="ylines-above crisp" d="M0,0" style="fill: none;"/><g class="overlines-above"/><g class="xaxislayer-above"><g class="xtick"><text text-anchor="middle" x="0" y="451" transform="translate(60,0)" style="font-family: system-ui, -apple-system, 'Segoe UI', Roboto, 'Helvetica Neue', 'Noto Sans', 'Liberation Sans', Arial, sans-serif, 'Apple Color Emoji', 'Segoe UI Emoji', 'Segoe UI Symbol', 'Noto Color Emoji'; font-size: 10px; fill: rgb(80, 80, 80); fill-opacity: 1; white-space: pre;">0%</text></g><g class="xtick"><text text-anchor="middle" x="0" y="451" style="font-family: system-ui, -apple-system, 'Segoe UI', Roboto, 'Helvetica Neue', 'Noto Sans', 'Liberation Sans', Arial, sans-serif, 'Apple Color Emoji', 'Segoe UI Emoji', 'Segoe UI Symbol', 'Noto Color Emoji'; font-size: 10px; fill: rgb(80, 80, 80); fill-opacity: 1; white-space: pre;" transform="translate(262.8,0)">20%</text></g><g class="xtick"><text text-anchor="middle" x="0" y="451" style="font-family: system-ui, -apple-system, 'Segoe UI', Roboto, 'Helvetica Neue', 'Noto Sans', 'Liberation Sans', Arial, sans-serif, 'Apple Color Emoji', 'Segoe UI Emoji', 'Segoe UI Symbol', 'Noto Color Emoji'; font-size: 10px; fill: rgb(80, 80, 80); fill-opacity: 1; white-space: pre;" transform="translate(465.6,0)">40%</text></g><g class="xtick"><text text-anchor="middle" x="0" y="451" style="font-family: system-ui, -apple-system, 'Segoe UI', Roboto, 'Helvetica Neue', 'Noto Sans', 'Liberation Sans', Arial, sans-serif, 'Apple Color Emoji', 'Segoe UI Emoji', 'Segoe UI Symbol', 'Noto Color Emoji'; font-size: 10px; fill: rgb(80, 80, 80); fill-opacity: 1; white-space: pre;" transform="translate(668.4,0)">60%</text></g><g class="xtick"><text text-anchor="middle" x="0" y="451" style="font-family: system-ui, -apple-system, 'Segoe UI', Roboto, 'Helvetica Neue', 'Noto Sans', 'Liberation Sans', Arial, sans-serif, 'Apple Color Emoji', 'Segoe UI Emoji', 'Segoe UI Symbol', 'Noto Color Emoji'; font-size: 10px; fill: rgb(80, 80, 80); fill-opacity: 1; white-space: pre;" transform="translate(871.2,0)">80%</text></g><g class="xtick"><text text-anchor="middle" x="0" y="451" style="font-family: system-ui, -apple-system, 'Segoe UI', Roboto, 'Helvetica Neue', 'Noto Sans', 'Liberation Sans', Arial, sans-serif, 'Apple Color Emoji', 'Segoe UI Emoji', 'Segoe UI Symbol', 'Noto Color Emoji'; font-size: 10px; fill: rgb(80, 80, 80); fill-opacity: 1; white-space: pre;" transform="translate(1074,0)">100%</text></g></g><g class="yaxislayer-above"><g class="ytick"><text text-anchor="end" x="54" y="3.5" transform="translate(0,435)" style="font-family: system-ui, -apple-system, 'Segoe UI', Roboto, 'Helvetica Neue', 'Noto Sans', 'Liberation Sans', Arial, sans-serif, 'Apple Color Emoji', 'Segoe UI Emoji', 'Segoe UI Symbol', 'Noto Color Emoji'; font-size: 10px; fill: rgb(80, 80, 80); fill-opacity: 1; white-space: pre;">0%</text></g><g class="ytick"><text text-anchor="end" x="54" y="3.5" style="font-family: system-ui, -apple-system, 'Segoe UI', Roboto, 'Helvetica Neue', 'Noto Sans', 'Liberation Sans', Arial, sans-serif, 'Apple Color Emoji', 'Segoe UI Emoji', 'Segoe UI Symbol', 'Noto Color Emoji'; font-size: 10px; fill: rgb(80, 80, 80); fill-opacity: 1; white-space: pre;" transform="translate(0,376.48)">2%</text></g><g class="ytick"><text text-anchor="end" x="54" y="3.5" style="font-family: system-ui, -apple-system, 'Segoe UI', Roboto, 'Helvetica Neue', 'Noto Sans', 'Liberation Sans', Arial, sans-serif, 'Apple Color Emoji', 'Segoe UI Emoji', 'Segoe UI Symbol', 'Noto Color Emoji'; font-size: 10px; fill: rgb(80, 80, 80); fill-opacity: 1; white-space: pre;" transform="translate(0,317.96)">4%</text></g><g class="ytick"><text text-anchor="end" x="54" y="3.5" style="font-family: system-ui, -apple-system, 'Segoe UI', Roboto, 'Helvetica Neue', 'Noto Sans', 'Liberation Sans', Arial, sans-serif, 'Apple Color Emoji', 'Segoe UI Emoji', 'Segoe UI Symbol', 'Noto Color Emoji'; font-size: 10px; fill: rgb(80, 80, 80); fill-opacity: 1; white-space: pre;" transform="translate(0,259.44)">6%</text></g><g class="ytick"><text text-anchor="end" x="54" y="3.5" style="font-family: system-ui, -apple-system, 'Segoe UI', Roboto, 'Helvetica Neue', 'Noto Sans', 'Liberation Sans', Arial, sans-serif, 'Apple Color Emoji', 'Segoe UI Emoji', 'Segoe UI Symbol', 'Noto Color Emoji'; font-size: 10px; fill: rgb(80, 80, 80); fill-opacity: 1; white-space: pre;" transform="translate(0,200.92)">8%</text></g><g class="ytick"><text text-anchor="end" x="54" y="3.5" style="font-family: system-ui, -apple-system, 'Segoe UI', Roboto, 'Helvetica Neue', 'Noto Sans', 'Liberation Sans', Arial, sans-serif, 'Apple Color Emoji', 'Segoe UI Emoji', 'Segoe UI Symbol', 'Noto Color Emoji'; font-size: 10px; fill: rgb(80, 80, 80); fill-opacity: 1; white-space: pre;" transform="translate(0,142.4)">10%</text></g><g class="ytick"><text text-anchor="end" x="54" y="3.5" style="font-family: system-ui, -apple-system, 'Segoe UI', Roboto, 'Helvetica Neue', 'Noto Sans', 'Liberation Sans', Arial, sans-serif, 'Apple Color Emoji', 'Segoe UI Emoji', 'Segoe UI Symbol', 'Noto Color Emoji'; font-size: 10px; fill: rgb(80, 80, 80); fill-opacity: 1; white-space: pre;" transform="translate(0,83.88)">12%</text></g></g><g class="overaxes-above"/></g></g><g class="polarlayer"/><g class="smithlayer"/><g class="ternarylayer"/><g class="geolayer"/><g class="funnelarealayer"/><g class="pielayer"/><g class="iciclelayer"/><g class="treemaplayer"/><g class="sunburstlayer"/><g class="glimages"/><defs id="topdefs-590706"><g class="clips"/></defs><g class="layer-above"><g class="imagelayer"/><g class="shapelayer"/></g><g class="infolayer"><g class="g-gtitle"><text class="gtitle" x="550" y="25" text-anchor="middle" dy="0em" style="opacity: 1; font-family: system-ui, -apple-system, 'Segoe UI', Roboto, 'Helvetica Neue', 'Noto Sans', 'Liberation Sans', Arial, sans-serif, 'Apple Color Emoji', 'Segoe UI Emoji', 'Segoe UI Symbol', 'Noto Color Emoji'; font-size: 20px; fill: rgb(60, 60, 60); fill-opacity: 1; white-space: pre;"><tspan class="line" dy="0em" x="550" y="25">FastQC: Per Sequence GC Content</tspan><tspan class="line" dy="1.3em" x="550" y="25">​<tspan style="font-size:70%" dy="-0.6em">Percentages, 20 lines</tspan><tspan dy="0.42em">​</tspan></tspan></text></g><g class="g-xtitle"><text class="xtitle" x="567" y="487" text-anchor="middle" style="opacity: 1; font-family: system-ui, -apple-system, 'Segoe UI', Roboto, 'Helvetica Neue', 'Noto Sans', 'Liberation Sans', Arial, sans-serif, 'Apple Color Emoji', 'Segoe UI Emoji', 'Segoe UI Symbol', 'Noto Color Emoji'; font-size: 14px; fill: rgb(100, 100, 100); fill-opacity: 1; white-space: pre;">% GC</text></g><g class="g-ytitle"><text class="ytitle" transform="rotate(-90,22,242.5)" x="22" y="242.5" text-anchor="middle" style="opacity: 1; font-family: system-ui, -apple-system, 'Segoe UI', Roboto, 'Helvetica Neue', 'Noto Sans', 'Liberation Sans', Arial, sans-serif, 'Apple Color Emoji', 'Segoe UI Emoji', 'Segoe UI Symbol', 'Noto Color Emoji'; font-size: 14px; fill: rgb(100, 100, 100); fill-opacity: 1; white-space: pre;">Percentage</text></g></g></svg>