<svg class="main-svg" xmlns="http://www.w3.org/2000/svg" xmlns:xlink="http://www.w3.org/1999/xlink" width="2200" height="1000" style="" viewBox="0 0 1100 500"><rect x="0" y="0" width="1100" height="500" style="fill: rgb(255, 255, 255); fill-opacity: 1;"/><defs id="defs-e1d5aa"><g class="clips"><clipPath id="clipe1d5aaxyplot" class="plotclip"><rect width="1014" height="385"/></clipPath><clipPath class="axesclip" id="clipe1d5aax"><rect x="60" y="0" width="1014" height="500"/></clipPath><clipPath class="axesclip" id="clipe1d5aay"><rect x="0" y="50" width="1100" height="385"/></clipPath><clipPath class="axesclip" id="clipe1d5aaxy"><rect x="60" y="50" width="1014" height="385"/></clipPath></g><g class="gradients"/><g class="patterns"/></defs><g class="bglayer"/><g class="layer-below"><g class="imagelayer"/><g class="shapelayer"><g class="shape-group" data-index="0" clip-path="url(#clipe1d5aay)"><path data-index="0" fill-rule="evenodd" d="M60,58.93H1074V-908.1H60Z" style="opacity: 0.13; stroke: rgb(0, 0, 0); stroke-opacity: 0; fill: rgb(0, 149, 0); fill-opacity: 1; stroke-width: 0px;"/></g><g class="shape-group" data-index="1" clip-path="url(#clipe1d5aay)"><path data-index="1" fill-rule="evenodd" d="M60,166.38H1074V58.93H60Z" style="opacity: 0.13; stroke: rgb(0, 0, 0); stroke-opacity: 0; fill: rgb(160, 115, 0); fill-opacity: 1; stroke-width: 0px;"/></g><g class="shape-group" data-index="2" clip-path="url(#clipe1d5aay)"><path data-index="2" fill-rule="evenodd" d="M60,435H1074V166.38H60Z" style="opacity: 0.13; stroke: rgb(0, 0, 0); stroke-opacity: 0; fill: rgb(153, 1, 1); fill-opacity: 1; stroke-width: 0px;"/></g><g class="shape-group" data-index="3" clip-path="url(#clipe1d5aay)"><path data-index="3" fill-rule="evenodd" d="M60,58.93H1074V-908.1H60Z" style="opacity: 0.13; stroke: rgb(0, 0, 0); stroke-opacity: 0; fill: rgb(0, 149, 0); fill-opacity: 1; stroke-width: 0px;"/></g><g class="shape-group" data-index="4" clip-path="url(#clipe1d5aay)"><path data-index="4" fill-rule="evenodd" d="M60,166.38H1074V58.93H60Z" style="opacity: 0.13; stroke: rgb(0, 0, 0); stroke-opacity: 0; fill: rgb(160, 115, 0); fill-opacity: 1; stroke-width: 0px;"/></g><g class="shape-group" data-index="5" clip-path="url(#clipe1d5aay)"><path data-index="5" fill-rule="evenodd" d="M60,435H1074V166.38H60Z" style="opacity: 0.13; stroke: rgb(0, 0, 0); stroke-opacity: 0; fill: rgb(153, 1, 1); fill-opacity: 1; stroke-width: 0px;"/></g></g></g><g class="cartesianlayer"><g class="subplot xy"><g class="layer-subplot"><g class="shapelayer"/><g class="imagelayer"/></g><g class="minor-gridlayer"><g class="x"/><g class="y"/></g><g class="gridlayer"><g class="x"><path class="xgrid crisp" transform="translate(262.8,0)" d="M0,50v385" style="stroke: rgb(128, 128, 128); stroke-opacity: 0.15; stroke-width: 1px;"/><path class="xgrid crisp" transform="translate(465.6,0)" d="M0,50v385" style="stroke: rgb(128, 128, 128); stroke-opacity: 0.15; stroke-width: 1px;"/><path class="xgrid crisp" transform="translate(668.4,0)" d="M0,50v385" style="stroke: rgb(128, 128, 128); stroke-opacity: 0.15; stroke-width: 1px;"/><path class="xgrid crisp" transform="translate(871.2,0)" d="M0,50v385" style="stroke: rgb(128, 128, 128); stroke-opacity: 0.15; stroke-width: 1px;"/></g><g class="y"><path class="ygrid crisp" transform="translate(0,367.84)" d="M60,0h1014" style="stroke: rgb(128, 128, 128); stroke-opacity: 0.15; stroke-width: 1px;"/><path class="ygrid crisp" transform="translate(0,300.69)" d="M60,0h1014" style="stroke: rgb(128, 128, 128); stroke-opacity: 0.15; stroke-width: 1px;"/><path class="ygrid crisp" transform="translate(0,233.53)" d="M60,0h1014" style="stroke: rgb(128, 128, 128); stroke-opacity: 0.15; stroke-width: 1px;"/><path class="ygrid crisp" transform="translate(0,166.38)" d="M60,0h1014" style="stroke: rgb(128, 128, 128); stroke-opacity: 0.15; stroke-width: 1px;"/><path class="ygrid crisp" transform="translate(0,99.22)" d="M60,0h1014" style="stroke: rgb(128, 128, 128); stroke-opacity: 0.15; stroke-width: 1px;"/></g></g><g class="zerolinelayer"><path class="xzl zl crisp" transform="translate(60,0)" d="M0,50v385" style="stroke: rgb(128, 128, 128); stroke-opacity: 0.2; stroke-width: 1px;"/><path class="yzl zl crisp" transform="translate(0,435)" d="M60,0h1014" style="stroke: rgb(128, 128, 128); stroke-opacity: 0.2; stroke-width: 1px;"/></g><g class="layer-between"><g class="shapelayer"/><g class="imagelayer"/></g><path class="xlines-below"/><path class="ylines-below"/><g class="overlines-below"/><g class="xaxislayer-below"/><g class="yaxislayer-below"/><g class="overaxes-below"/><g class="overplot"><g class="xy" transform="translate(60,50)" clip-path="url(#clipe1d5aaxyplot)"><g class="scatterlayer mlayer"><g class="trace scatter trace201b76" style="stroke-miterlimit: 2; opacity: 1;"><g class="fills"/><g class="errorbars"/><g class="lines"><path class="js-line" d="M20.28,37.81L40.56,111.68L60.84,162.72L81.12,98.25L101.4,125.78L121.68,79.44L141.96,108.32L162.24,103.62L182.52,105.63L202.8,144.58L223.08,118.39L243.36,105.63L263.64,156.67L283.92,127.8L304.2,81.46L324.48,147.94L344.76,81.46L365.04,98.25L385.32,87.5L405.6,153.99L425.88,70.04L446.16,174.13L466.44,131.83L486.72,124.44L507,104.29L527.28,186.22L547.56,133.84L567.84,128.47L588.12,149.96L608.4,133.17L628.68,104.96L648.96,127.8L669.24,37.81L689.52,74.74L709.8,148.61L730.08,86.16L750.36,117.05L770.64,129.81L790.92,150.63L811.2,130.48L831.48,89.52L851.76,159.36L872.04,168.76L892.32,121.08L912.6,108.32L932.88,162.05L953.16,114.37L993.72,146.6L1014,127.8" style="vector-effect: none; fill: none; stroke: rgb(92, 184, 92); stroke-opacity: 1; stroke-width: 2px; opacity: 1;"/></g><g class="points"/><g class="text"/></g><g class="trace scatter tracef7606b" style="stroke-miterlimit: 2; opacity: 1;"><g class="fills"/><g class="errorbars"/><g class="lines"><path class="js-line" d="M20.28,135.18L40.56,145.26L60.84,166.07L81.12,120.41L101.4,55.94L121.68,76.09L141.96,57.95L162.24,132.5L182.52,123.77L202.8,162.05L223.08,145.26L243.36,141.9L263.64,140.56L283.92,131.83L304.2,108.32L324.48,63.33L344.76,74.74L365.04,86.83L385.32,111.01L405.6,121.08L425.88,122.42L446.16,115.71L466.44,160.7L486.72,90.19L507,93.55L527.28,137.87L547.56,104.29L567.84,116.38L588.12,59.3L608.4,81.46L628.68,132.5L648.96,163.39L669.24,130.48L689.52,206.37L709.8,117.05L730.08,126.45L750.36,134.51L770.64,145.93L790.92,64L811.2,175.48L831.48,70.04L851.76,147.94L872.04,68.03L892.32,98.92L912.6,71.39L932.88,74.74L953.16,100.93L973.44,145.93L993.72,107.65L1014,174.8" style="vector-effect: none; fill: none; stroke: rgb(92, 184, 92); stroke-opacity: 1; stroke-width: 2px; opacity: 1;"/></g><g class="points"/><g class="text"/></g><g class="trace scatter trace026df1" style="stroke-miterlimit: 2; opacity: 1;"><g class="fills"/><g class="errorbars"/><g class="lines"><path class="js-line" d="M20.28,183.53L40.56,115.71L60.84,148.61L81.12,117.05L101.4,138.54L121.68,163.39L141.96,160.03L162.24,113.02L182.52,162.05L202.8,229.87L223.08,94.89L243.36,101.61L263.64,117.05L283.92,115.71L304.2,66.01L324.48,158.02L344.76,139.88L365.04,81.46L385.32,118.39L405.6,149.29L425.88,101.61L446.16,151.97L466.44,139.21L486.72,172.79L507,156L527.28,130.48L547.56,18.33L567.84,115.04L588.12,116.38L608.4,98.92L628.68,119.74L648.96,125.78L669.24,103.62L689.52,128.47L709.8,121.75L730.08,53.93L750.36,113.69L770.64,123.77L790.92,115.04L811.2,119.07L831.48,89.52L851.76,174.8L872.04,90.86L892.32,67.36L912.6,134.51L932.88,53.25L953.16,165.4L973.44,96.9L993.72,131.83L1014,192.26" style="vector-effect: none; fill: none; stroke: rgb(92, 184, 92); stroke-opacity: 1; stroke-width: 2px; opacity: 1;"/></g><g class="points"/><g class="text"/></g><g class="trace scatter traceb4e7da" style="stroke-miterlimit: 2; opacity: 1;"><g class="fills"/><g class="errorbars"/><g class="lines"><path class="js-line" d="M20.28,93.55L40.56,131.83L60.84,121.08L81.12,164.73L101.4,79.44L121.68,149.96L141.96,90.86L162.24,176.15L182.52,94.22L202.8,92.2L223.08,121.75L243.36,159.36L263.64,133.84L283.92,174.8L304.2,90.86L324.48,122.42L344.76,143.24L365.04,58.63L385.32,143.91L405.6,146.6L425.88,88.85L446.16,102.28L466.44,120.41L486.72,175.48L507,126.45L527.28,25.72L547.56,132.5L567.84,153.32L588.12,78.1L608.4,138.54L628.68,160.03L648.96,47.88L669.24,158.69L689.52,94.22L709.8,171.45L730.08,96.23L750.36,180.85L770.64,126.45L790.92,121.75L811.2,129.14L831.48,131.83L851.76,153.32L872.04,115.71L892.32,51.24L912.6,85.49L932.88,78.77L953.16,164.06L973.44,94.89L993.72,43.18L1014,98.92" style="vector-effect: none; fill: none; stroke: rgb(92, 184, 92); stroke-opacity: 1; stroke-width: 2px; opacity: 1;"/></g><g class="points"/><g class="text"/></g><g class="trace scatter traceefba02" style="stroke-miterlimit: 2; opacity: 1;"><g class="fills"/><g class="errorbars"/><g class="lines"><path class="js-line" d="M20.28,73.4L40.56,140.56L60.84,130.48L81.12,59.97L101.4,147.94L121.68,76.09L141.96,102.95L162.24,68.03L182.52,90.19L202.8,102.95L223.08,137.2L243.36,122.42L263.64,82.13L283.92,148.61L304.2,186.89L324.48,123.1L344.76,180.85L365.04,143.91L385.32,177.49L405.6,152.64L425.88,109.66L446.16,170.78L466.44,129.14L486.72,92.88L507,149.29L527.28,20.35L547.56,127.8L567.84,113.02L588.12,111.68L608.4,131.83L628.68,206.37L648.96,94.89L669.24,108.99L689.52,143.24L709.8,74.74L730.08,166.07L750.36,127.8L770.64,87.5L790.92,98.25L811.2,125.11L831.48,202.34L851.76,91.53L872.04,127.8L892.32,80.79L912.6,105.63L932.88,153.32L953.16,149.96L973.44,127.12L993.72,133.84L1014,70.04" style="vector-effect: none; fill: none; stroke: rgb(92, 184, 92); stroke-opacity: 1; stroke-width: 2px; opacity: 1;"/></g><g class="points"/><g class="text"/></g><g class="trace scatter trace400789" style="stroke-miterlimit: 2; opacity: 1;"><g class="fills"/><g class="errorbars"/><g class="lines"><path class="js-line" d="M20.28,92.88L40.56,84.82L60.84,67.36L81.12,65.34L101.4,90.86L121.68,59.3L141.96,118.39L162.24,71.39L182.52,162.72L202.8,131.83L223.08,158.69L243.36,115.71L263.64,160.03L283.92,153.32L304.2,115.04L324.48,137.87L344.76,153.32L365.04,171.45L385.32,115.04L405.6,108.32L425.88,96.23L446.16,145.93L466.44,149.96L486.72,145.26L507,80.12L527.28,125.78L547.56,130.48L567.84,85.49L588.12,145.26L608.4,106.98L628.68,96.23L648.96,118.39L669.24,127.12L689.52,159.36L709.8,96.9L730.08,57.95L750.36,44.52L770.64,115.71L790.92,132.5L811.2,68.03L831.48,145.93L851.76,114.37L872.04,153.32L892.32,87.5L912.6,92.88L932.88,125.11L953.16,134.51L973.44,92.2L993.72,164.73L1014,169.43" style="vector-effect: none; fill: none; stroke: rgb(92, 184, 92); stroke-opacity: 1; stroke-width: 2px; opacity: 1;"/></g><g class="points"/><g class="text"/></g><g class="trace scatter trace44596e" style="stroke-miterlimit: 2; opacity: 1;"><g class="fills"/><g class="errorbars"/><g class="lines"><path class="js-line" d="M20.28,178.83L40.56,93.55L60.84,139.88L81.12,177.49L101.4,147.94L121.68,137.87L141.96,138.54L162.24,64.67L182.52,96.23L202.8,114.37L223.08,121.75L243.36,160.03L263.64,88.85L283.92,124.44L304.2,151.97L324.48,121.75L344.76,178.83L365.04,106.98L385.32,145.26L405.6,93.55L425.88,127.12L446.16,82.8L466.44,101.61L486.72,117.72L507,128.47L527.28,117.72L547.56,135.85L567.84,111.68L588.12,118.39L608.4,140.56L628.68,129.14L648.96,108.99L669.24,145.93L689.52,127.12L709.8,133.17L730.08,163.39L750.36,139.88L770.64,171.45L790.92,120.41L811.2,108.99L831.48,113.02L851.76,109.66L872.04,118.39L892.32,82.13L912.6,142.57L932.88,162.72L953.16,150.63L973.44,93.55L993.72,216.44L1014,116.38" style="vector-effect: none; fill: none; stroke: rgb(92, 184, 92); stroke-opacity: 1; stroke-width: 2px; opacity: 1;"/></g><g class="points"/><g class="text"/></g><g class="trace scatter traceb99730" style="stroke-miterlimit: 2; opacity: 1;"><g class="fills"/><g class="errorbars"/><g class="lines"><path class="js-line" d="M20.28,143.91L40.56,106.31L60.84,112.35L81.12,122.42L101.4,130.48L121.68,111.01L141.96,131.15L162.24,63.33L182.52,123.77L202.8,112.35L223.08,158.69L243.36,97.58L263.64,94.89L283.92,78.1L304.2,137.87L324.48,113.02L344.76,143.24L365.04,78.1L385.32,72.73L405.6,108.99L425.88,158.02L446.16,108.32L466.44,104.96L486.72,176.82L507,115.71L527.28,181.52L547.56,98.92L567.84,136.53L588.12,97.58L608.4,74.07L628.68,151.3L648.96,164.73L669.24,100.26L689.52,53.25L709.8,137.2L730.08,100.93L750.36,156L770.64,108.32L790.92,64.67L811.2,90.86L831.48,131.83L851.76,114.37L872.04,162.72L892.32,110.34L912.6,152.64L932.88,150.63L953.16,126.45L973.44,93.55L993.72,102.95L1014,150.63" style="vector-effect: none; fill: none; stroke: rgb(92, 184, 92); stroke-opacity: 1; stroke-width: 2px; opacity: 1;"/></g><g class="points"/><g class="text"/></g><g class="trace scatter trace279a19" style="stroke-miterlimit: 2; opacity: 1;"><g class="fills"/><g class="errorbars"/><g class="lines"><path class="js-line" d="M20.28,125.11L40.56,146.6L60.84,134.51L81.12,142.57L101.4,127.8L121.68,164.73L141.96,31.76L162.24,176.82L182.52,174.8L202.8,149.96L223.08,162.72L243.36,127.8L263.64,144.58L283.92,100.26L304.2,117.72L324.48,154.66L344.76,94.22L365.04,138.54L385.32,143.24L405.6,98.92L425.88,109.66L446.16,127.12L466.44,72.06L486.72,99.59L507,187.56L527.28,113.02L547.56,104.96L567.84,151.3L588.12,160.03L608.4,149.96L628.68,72.06L648.96,135.18L669.24,108.99L689.52,195.62L709.8,121.75L730.08,142.57L750.36,101.61L770.64,113.02L790.92,129.81L811.2,63.33L831.48,151.97L851.76,164.73L872.04,141.23L892.32,126.45L912.6,139.88L932.88,117.05L953.16,125.78L973.44,165.4L993.72,133.84L1014,169.43" style="vector-effect: none; fill: none; stroke: rgb(92, 184, 92); stroke-opacity: 1; stroke-width: 2px; opacity: 1;"/></g><g class="points"/><g class="text"/></g><g class="trace scatter tracebc165f" style="stroke-miterlimit: 2; opacity: 1;"><g class="fills"/><g class="errorbars"/><g class="lines"><path class="js-line" d="M20.28,156L40.56,150.63L60.84,84.15L81.12,151.97L101.4,124.44L121.68,137.2L141.96,105.63L162.24,92.2L182.52,121.75L202.8,97.58L223.08,162.05L243.36,129.81L263.64,116.38L283.92,143.91L304.2,61.98L324.48,72.06L344.76,180.18L365.04,111.68L385.32,110.34L405.6,132.5L425.88,91.53L446.16,118.39L466.44,84.82L486.72,61.98L507,133.84L527.28,143.91L547.56,40.49L567.84,96.9L588.12,85.49L608.4,106.31L628.68,116.38L648.96,114.37L669.24,76.09L689.52,84.82L709.8,168.09L730.08,156.67L750.36,169.43L770.64,164.06L790.92,54.6L811.2,221.14L831.48,160.7L851.76,139.21L872.04,151.3L892.32,175.48L912.6,133.84L932.88,158.69L953.16,98.25L973.44,85.49L993.72,174.8L1014,121.08" style="vector-effect: none; fill: none; stroke: rgb(92, 184, 92); stroke-opacity: 1; stroke-width: 2px; opacity: 1;"/></g><g class="points"/><g class="text"/></g><g class="trace scatter traceb1390e" style="stroke-miterlimit: 2; opacity: 1;"><g class="fills"/><g class="errorbars"/><g class="lines"><path class="js-line" d="M20.28,153.32L40.56,77.43L60.84,131.83L81.12,126.45L101.4,84.15L121.68,96.23L141.96,96.9L162.24,140.56L182.52,170.78L202.8,117.72L223.08,55.27L243.36,115.04L263.64,92.88L283.92,87.5L304.2,106.31L324.48,105.63L344.76,98.92L365.04,153.32L385.32,98.92L405.6,174.8L425.88,94.89L446.16,105.63L466.44,66.01L486.72,127.12L507,209.05L527.28,70.04L547.56,73.4L567.84,66.01L588.12,128.47L608.4,117.05L628.68,139.88L648.96,164.06L669.24,133.84L689.52,159.36L709.8,117.72L730.08,61.98L750.36,96.23L770.64,93.55L790.92,125.78L811.2,164.73L831.48,145.26L851.76,123.1L872.04,102.28L892.32,143.91L912.6,60.64L932.88,148.61L953.16,100.26L973.44,99.59L993.72,57.28L1014,151.97" style="vector-effect: none; fill: none; stroke: rgb(92, 184, 92); stroke-opacity: 1; stroke-width: 2px; opacity: 1;"/></g><g class="points"/><g class="text"/></g><g class="trace scatter tracef7c371" style="stroke-miterlimit: 2; opacity: 1;"><g class="fills"/><g class="errorbars"/><g class="lines"><path class="js-line" d="M20.28,200.32L40.56,118.39L60.84,102.28L81.12,149.29L101.4,120.41L121.68,101.61L141.96,153.32L162.24,152.64L182.52,96.23L202.8,80.79L223.08,147.94L243.36,115.71L263.64,49.22L283.92,74.07L304.2,88.17L324.48,117.72L344.76,115.71L365.04,98.25L385.32,40.49L405.6,127.12L425.88,120.41L446.16,61.98L466.44,150.63L486.72,158.69L507,115.71L527.28,88.17L547.56,107.65L567.84,127.8L588.12,145.26L608.4,64.67L628.68,132.5L648.96,121.75L669.24,161.37L689.52,151.97L709.8,57.28L730.08,129.14L750.36,81.46L770.64,43.85L790.92,81.46L811.2,98.25L831.48,66.68L851.76,88.85L872.04,106.31L892.32,101.61L912.6,90.19L932.88,151.97L953.16,168.76L973.44,108.99L993.72,185.55L1014,172.12" style="vector-effect: none; fill: none; stroke: rgb(92, 184, 92); stroke-opacity: 1; stroke-width: 2px; opacity: 1;"/></g><g class="points"/><g class="text"/></g><g class="trace scatter trace06c7c4" style="stroke-miterlimit: 2; opacity: 1;"><g class="fills"/><g class="errorbars"/><g class="lines"><path class="js-line" d="M20.28,148.61L40.56,76.09L60.84,107.65L81.12,92.2L101.4,104.96L121.68,129.14L141.96,58.63L162.24,152.64L182.52,127.12L202.8,134.51L223.08,103.62L243.36,38.48L263.64,114.37L283.92,98.25L304.2,168.09L324.48,126.45L344.76,70.71L365.04,87.5L385.32,131.83L405.6,111.68L425.88,46.54L446.16,125.78L466.44,127.12L486.72,124.44L507,156L527.28,133.17L547.56,207.71L567.84,107.65L588.12,70.04L608.4,198.98L628.68,110.34L648.96,86.16L669.24,147.94L689.52,105.63L709.8,137.2L730.08,140.56L750.36,105.63L770.64,158.69L790.92,149.96L811.2,127.8L831.48,151.3L851.76,205.02L872.04,153.32L892.32,92.2L912.6,128.47L932.88,104.96L953.16,65.34L973.44,206.37L993.72,106.31L1014,164.73" style="vector-effect: none; fill: none; stroke: rgb(92, 184, 92); stroke-opacity: 1; stroke-width: 2px; opacity: 1;"/></g><g class="points"/><g class="text"/></g><g class="trace scatter trace538d22" style="stroke-miterlimit: 2; opacity: 1;"><g class="fills"/><g class="errorbars"/><g class="lines"><path class="js-line" d="M20.28,97.58L40.56,29.75L60.84,42.51L81.12,91.53L101.4,76.76L121.68,95.56L141.96,153.99L162.24,126.45L182.52,184.88L202.8,143.91L223.08,128.47L243.36,147.27L263.64,97.58L283.92,119.74L304.2,115.71L324.48,82.13L344.76,92.88L365.04,83.47L385.32,173.46L405.6,205.02L425.88,132.5L446.16,172.12L466.44,146.6L486.72,145.93L507,68.7L527.28,156L547.56,107.65L567.84,104.29L588.12,125.11L608.4,57.28L628.68,97.58L648.96,114.37L669.24,118.39L689.52,165.4L709.8,137.2L730.08,149.29L750.36,122.42L770.64,113.69L790.92,99.59L811.2,108.32L831.48,131.15L851.76,108.99L872.04,160.03L892.32,151.97L912.6,83.47L932.88,96.9L953.16,130.48L973.44,123.1L993.72,119.07L1014,119.74" style="vector-effect: none; fill: none; stroke: rgb(92, 184, 92); stroke-opacity: 1; stroke-width: 2px; opacity: 1;"/></g><g class="points"/><g class="text"/></g><g class="trace scatter trace848f52" style="stroke-miterlimit: 2; opacity: 1;"><g class="fills"/><g class="errorbars"/><g class="lines"><path class="js-line" d="M20.28,172.79L40.56,156L60.84,123.77L81.12,115.71L101.4,82.13L121.68,83.47L141.96,149.29L162.24,104.96L182.52,196.29L202.8,79.44L223.08,126.45L243.36,114.37L263.64,161.37L283.92,108.32L304.2,104.29L324.48,93.55L344.76,181.52L365.04,106.31L385.32,130.48L405.6,84.82L425.88,72.73L446.16,74.07L466.44,92.2L486.72,138.54L507,141.23L527.28,91.53L547.56,115.04L567.84,98.25L588.12,147.27L608.4,176.82L628.68,79.44L648.96,98.92L669.24,137.2L689.52,148.61L709.8,121.08L730.08,158.69L750.36,111.68L770.64,109.66L790.92,181.52L811.2,57.28L831.48,151.97L851.76,122.42L872.04,138.54L892.32,119.07L912.6,158.69L932.88,169.43L953.16,164.06L973.44,104.29L993.72,82.13L1014,115.04" style="vector-effect: none; fill: none; stroke: rgb(92, 184, 92); stroke-opacity: 1; stroke-width: 2px; opacity: 1;"/></g><g class="points"/><g class="text"/></g><g class="trace scatter trace6db5f7" style="stroke-miterlimit: 2; opacity: 1;"><g class="fills"/><g class="errorbars"/><g class="lines"><path class="js-line" d="M20.28,117.72L40.56,114.37L60.84,170.1L81.12,169.43L101.4,93.55L121.68,112.35L141.96,82.13L162.24,168.76L182.52,174.8L202.8,137.87L223.08,64L243.36,137.87L263.64,142.57L283.92,137.87L304.2,109.66L324.48,160.03L344.76,115.04L365.04,182.86L385.32,121.75L405.6,102.28L425.88,166.75L446.16,70.71L466.44,192.94L486.72,130.48L507,141.23L527.28,142.57L547.56,194.95L567.84,63.33L588.12,160.7L608.4,55.94L628.68,161.37L648.96,136.53L669.24,91.53L689.52,173.46L709.8,117.05L730.08,123.1L750.36,134.51L770.64,122.42L790.92,92.2L811.2,54.6L831.48,119.74L851.76,88.17L872.04,84.15L892.32,168.09L912.6,81.46L932.88,95.56L953.16,66.01L973.44,77.43L993.72,174.8L1014,158.69" style="vector-effect: none; fill: none; stroke: rgb(92, 184, 92); stroke-opacity: 1; stroke-width: 2px; opacity: 1;"/></g><g class="points"/><g class="text"/></g><g class="trace scatter trace54ca04" style="stroke-miterlimit: 2; opacity: 1;"><g class="fills"/><g class="errorbars"/><g class="lines"><path class="js-line" d="M20.28,127.12L40.56,87.5L60.84,165.4L81.12,160.03L101.4,173.46L121.68,128.47L141.96,120.41L162.24,78.1L182.52,56.61L202.8,113.02L223.08,113.69L243.36,150.63L263.64,119.07L283.92,111.68L304.2,186.22L324.48,72.06L344.76,133.84L365.04,68.7L385.32,174.13L405.6,128.47L425.88,104.29L446.16,100.93L466.44,129.14L486.72,189.58L507,103.62L527.28,125.11L547.56,141.23L567.84,94.22L588.12,103.62L608.4,125.78L628.68,100.93L648.96,149.96L669.24,121.08L689.52,51.91L709.8,96.23L730.08,143.24L750.36,168.09L770.64,92.2L790.92,119.74L811.2,111.01L831.48,149.29L851.76,149.96L872.04,67.36L892.32,66.68L912.6,74.74L932.88,113.02L953.16,155.33L973.44,106.98L993.72,152.64L1014,115.04" style="vector-effect: none; fill: none; stroke: rgb(92, 184, 92); stroke-opacity: 1; stroke-width: 2px; opacity: 1;"/></g><g class="points"/><g class="text"/></g><g class="trace scatter tracee70e59" style="stroke-miterlimit: 2; opacity: 1;"><g class="fills"/><g class="errorbars"/><g class="lines"><path class="js-line" d="M20.28,123.1L40.56,43.85L60.84,113.69L81.12,156L101.4,102.28L121.68,111.01L141.96,117.72L162.24,122.42L182.52,155.33L202.8,135.85L223.08,123.77L243.36,180.85L263.64,106.98L283.92,136.53L304.2,109.66L324.48,110.34L344.76,115.04L365.04,110.34L385.32,119.74L405.6,126.45L425.88,98.25L446.16,194.28L466.44,80.79L486.72,217.11L507,57.28L527.28,102.95L547.56,125.11L567.84,75.42L588.12,97.58L608.4,92.2L628.68,105.63L648.96,161.37L669.24,162.05L689.52,164.73L709.8,149.29L730.08,170.1L750.36,88.85L770.64,93.55L790.92,91.53L811.2,80.12L831.48,92.2L851.76,125.78L872.04,93.55L892.32,143.91L912.6,135.85L932.88,159.36L953.16,120.41L973.44,147.94L993.72,62.66L1014,161.37" style="vector-effect: none; fill: none; stroke: rgb(92, 184, 92); stroke-opacity: 1; stroke-width: 2px; opacity: 1;"/></g><g class="points"/><g class="text"/></g><g class="trace scatter trace2b0b8b" style="stroke-miterlimit: 2; opacity: 1;"><g class="fills"/><g class="errorbars"/><g class="lines"><path class="js-line" d="M20.28,197.64L40.56,97.58L60.84,144.58L81.12,102.28L101.4,121.08L121.68,138.54L141.96,146.6L162.24,203.68L182.52,102.28L202.8,115.71L223.08,149.29L243.36,55.94L263.64,118.39L283.92,114.37L304.2,106.98L324.48,84.15L344.76,87.5L365.04,94.89L385.32,167.42L405.6,100.26L425.88,153.32L446.16,51.91L466.44,122.42L486.72,112.35L507,117.05L527.28,96.9L547.56,86.16L567.84,115.04L588.12,98.92L608.4,127.12L628.68,137.87L648.96,126.45L669.24,67.36L689.52,125.78L709.8,154.66L730.08,143.24L750.36,118.39L770.64,119.74L790.92,166.07L811.2,145.26L831.48,85.49L851.76,108.32L872.04,155.33L892.32,156.67L912.6,155.33L932.88,95.56L953.16,129.14L973.44,126.45L993.72,106.98L1014,104.96" style="vector-effect: none; fill: none; stroke: rgb(92, 184, 92); stroke-opacity: 1; stroke-width: 2px; opacity: 1;"/></g><g class="points"/><g class="text"/></g><g class="trace scatter traced034fc" style="stroke-miterlimit: 2; opacity: 1;"><g class="fills"/><g class="errorbars"/><g class="lines"><path class="js-line" d="M20.28,122.42L40.56,126.45L60.84,64L81.12,107.65L101.4,147.94L121.68,109.66L141.96,113.02L162.24,133.17L182.52,63.33L202.8,93.55L223.08,94.22L243.36,176.82L263.64,149.29L283.92,144.58L304.2,134.51L324.48,142.57L344.76,156L365.04,126.45L385.32,39.15L405.6,184.21L425.88,87.5L446.16,92.2L466.44,86.16L486.72,104.29L507,169.43L527.28,130.48L547.56,152.64L567.84,184.21L588.12,166.75L608.4,104.96L628.68,111.01L648.96,133.84L669.24,117.05L689.52,130.48L709.8,156L730.08,77.43L750.36,143.24L770.64,136.53L790.92,159.36L811.2,129.81L831.48,95.56L851.76,133.84L872.04,117.72L892.32,82.13L912.6,172.79L932.88,98.25L953.16,123.1L973.44,124.44L993.72,170.78L1014,159.36" style="vector-effect: none; fill: none; stroke: rgb(92, 184, 92); stroke-opacity: 1; stroke-width: 2px; opacity: 1;"/></g><g class="points"/><g class="text"/></g></g></g></g><g class="zerolinelayer-above"/><path class="xlines-above crisp" d="M0,0" style="fill: none;"/><path class="ylines-above crisp" d="M0,0" style="fill: none;"/><g class="overlines-above"/><g class="xaxislayer-above"><g class="xtick"><text text-anchor="middle" x="0" y="451" transform="translate(60,0)" style="font-family: system-ui, -apple-system, 'Segoe UI', Roboto, 'Helvetica Neue', 'Noto Sans', 'Liberation Sans', Arial, sans-serif, 'Apple Color Emoji', 'Segoe UI Emoji', 'Segoe UI Symbol', 'Noto Color Emoji'; font-size: 10px; fill: rgb(80, 80, 80); fill-opacity: 1; white-space: pre;">0 bp</text></g><g class="xtick"><text text-anchor="middle" x="0" y="451" style="font-family: system-ui, -apple-system, 'Segoe UI', Roboto, 'Helvetica Neue', 'Noto Sans', 'Liberation Sans', Arial, sans-serif, 'Apple Color Emoji', 'Segoe UI Emoji', 'Segoe UI Symbol', 'Noto Color Emoji'; font-size: 10px; fill: rgb(80, 80, 80); fill-opacity: 1; white-space: pre;" transform="translate(262.8,0)">10 bp</text></g><g class="xtick"><text text-anchor="middle" x="0" y="451" style="font-family: system-ui, -apple-system, 'Segoe UI', Roboto, 'Helvetica Neue', 'Noto Sans', 'Liberation Sans', Arial, sans-serif, 'Apple Color Emoji', 'Segoe UI Emoji', 'Segoe UI Symbol', 'Noto Color Emoji'; font-size: 10px; fill: rgb(80, 80, 80); fill-opacity: 1; white-space: pre;" transform="translate(465.6,0)">20 bp</text></g><g class="xtick"><text text-anchor="middle" x="0" y="451" style="font-family: system-ui, -apple-system, 'Segoe UI', Roboto, 'Helvetica Neue', 'Noto Sans', 'Liberation Sans', Arial, sans-serif, 'Apple Color Emoji', 'Segoe UI Emoji', 'Segoe UI Symbol', 'Noto Color Emoji'; font-size: 10px; fill: rgb(80, 80, 80); fill-opacity: 1; white-space: pre;" transform="translate(668.4,0)">30 bp</text></g><g class="xtick"><text text-anchor="middle" x="0" y="451" style="font-family: system-ui, -apple-system, 'Segoe UI', Roboto, 'Helvetica Neue', 'Noto Sans', 'Liberation Sans', Arial, sans-serif, 'Apple Color Emoji', 'Segoe UI Emoji', 'Segoe UI Symbol', 'Noto Color Emoji'; font-size: 10px; fill: rgb(80, 80, 80); fill-opacity: 1; white-space: pre;" transform="translate(871.2,0)">40 bp</text></g><g class="xtick"><text text-anchor="middle" x="0" y="451" style="font-family: system-ui, -apple-system, 'Segoe UI', Roboto, 'Helvetica Neue', 'Noto Sans', 'Liberation Sans', Arial, sans-serif, 'Apple Color Emoji', 'Segoe UI Emoji', 'Segoe UI Symbol', 'Noto Color Emoji'; font-size: 10px; fill: rgb(80, 80, 80); fill-opacity: 1; white-space: pre;" transform="translate(1074,0)">50 bp</text></g></g><g class="yaxislayer-above"><g class="ytick"><text text-anchor="end" x="54" y="3.5" transform="translate(0,435)" style="font-family: system-ui, -apple-system, 'Segoe UI', Roboto, 'Helvetica Neue', 'Noto Sans', 'Liberation Sans', Arial, sans-serif, 'Apple Color Emoji', 'Segoe UI Emoji', 'Segoe UI Symbol', 'Noto Color Emoji'; font-size: 10px; fill: rgb(80, 80, 80); fill-opacity: 1; white-space: pre;">0</text></g><g class="ytick"><text text-anchor="end" x="54" y="3.5" style="font-family: system-ui, -apple-system, 'Segoe UI', Roboto, 'Helvetica Neue', 'Noto Sans', 'Liberation Sans', Arial, sans-serif, 'Apple Color Emoji', 'Segoe UI Emoji', 'Segoe UI Symbol', 'Noto Color Emoji'; font-size: 10px; fill: rgb(80, 80, 80); fill-opacity: 1; white-space: pre;" transform="translate(0,367.84)">5</text></g><g class="ytick"><text text-anchor="end" x="54" y="3.5" style="font-family: system-ui, -apple-system, 'Segoe UI', Roboto, 'Helvetica Neue', 'Noto Sans', 'Liberation Sans', Arial, sans-serif, 'Apple Color Emoji', 'Segoe UI Emoji', 'Segoe UI Symbol', 'Noto Color Emoji'; font-size: 10px; fill: rgb(80, 80, 80); fill-opacity: 1; white-space: pre;" transform="translate(0,300.69)">10</text></g><g class="ytick"><text text-anchor="end" x="54" y="3.5" style="font-family: system-ui, -apple-system, 'Segoe UI', Roboto, 'Helvetica Neue', 'Noto Sans', 'Liberation Sans', Arial, sans-serif, 'Apple Color Emoji', 'Segoe UI Emoji', 'Segoe UI Symbol', 'Noto Color Emoji'; font-size: 10px; fill: rgb(80, 80, 80); fill-opacity: 1; white-space: pre;" transform="translate(0,233.53)">15</text></g><g class="ytick"><text text-anchor="end" x="54" y="3.5" style="font-family: system-ui, -apple-system, 'Segoe UI', Roboto, 'Helvetica Neue', 'Noto Sans', 'Liberation Sans', Arial, sans-serif, 'Apple Color Emoji', 'Segoe UI Emoji', 'Segoe UI Symbol', 'Noto Color Emoji'; font-size: 10px; fill: rgb(80, 80, 80); fill-opacity: 1; white-space: pre;" transform="translate(0,166.38)">20</text></g><g class="ytick"><text text-anchor="end" x="54" y="3.5" style="font-family: system-ui, -apple-system, 'Segoe UI', Roboto, 'Helvetica Neue', 'Noto Sans', 'Liberation Sans', Arial, sans-serif, 'Apple Color Emoji', 'Segoe UI Emoji', 'Segoe UI Symbol', 'Noto Color Emoji'; font-size: 10px; fill: rgb(80, 80, 80); fill-opacity: 1; white-space: pre;" transform="translate(0,99.22)">25</text></g></g><g class="overaxes-above"/></g></g><g class="polarlayer"/><g class="smithlayer"/><g class="ternarylayer"/><g class="geolayer"/><g class="funnelarealayer"/><g class="pielayer"/><g class="iciclelayer"/><g class="treemaplayer"/><g class="sunburstlayer"/><g class="glimages"/><defs id="topdefs-e1d5aa"><g class="clips"/></defs><g class="layer-above"><g class="imagelayer"/><g class="shapelayer"/></g><g class="infolayer"><g class="g-gtitle"><text class="gtitle" x="550" y="25" text-anchor="middle" dy="0em" style="opacity: 1; font-family: system-ui, -apple-system, 'Segoe UI', Roboto, 'Helvetica Neue', 'Noto Sans', 'Liberation Sans', Arial, sans-serif, 'Apple Color Emoji', 'Segoe UI Emoji', 'Segoe UI Symbol', 'Noto Color Emoji'; font-size: 20px; fill: rgb(60, 60, 60); fill-opacity: 1; white-space: pre;"><tspan class="line" dy="0em" x="550" y="25">FastQC: Mean Quality Scores</tspan><tspan class="line" dy="1.3em" x="550" y="25">​<tspan style="font-size:70%" dy="-0.6em">20 lines</tspan><tspan dy="0.42em">​</tspan></tspan></text></g><g class="g-xtitle"><text class="xtitle" x="567" y="487" text-anchor="middle" style="opacity: 1; font-family: system-ui, -apple-system, 'Segoe UI', Roboto, 'Helvetica Neue', 'Noto Sans', 'Liberation Sans', Arial, sans-serif, 'Apple Color Emoji', 'Segoe UI Emoji', 'Segoe UI Symbol', 'Noto Color Emoji'; font-size: 14px; fill: rgb(100, 100, 100); fill-opacity: 1; white-space: pre;">Position (bp)</text></g><g class="g-ytitle"><text class="ytitle" transform="rotate(-90,22,242.5)" x="22" y="242.5" text-anchor="middle" style="opacity: 1; font-family: system-ui, -apple-system, 'Segoe UI', Roboto, 'Helvetica Neue', 'Noto Sans', 'Liberation Sans', Arial, sans-serif, 'Apple Color Emoji', 'Segoe UI Emoji', 'Segoe UI Symbol', 'Noto Color Emoji'; font-size: 14px; fill: rgb(100, 100, 100); fill-opacity: 1; white-space: pre;">Phred Score</text></g></g></svg>